<svg xmlns="http://www.w3.org/2000/svg" viewBox="0 0 32 32"><rect width="32" height="32" fill="#000000"/><path d="M13.73,2.91l2,.83,2.19.63,2.46-.31,3.47-.24.9.39.83.63,1.29,1.44L27.7,8l.51,1.79-.39,1.4-.54,2-.58,2.09,1.18,3.12L28,19l0,1.44L27.7,22.7l-.51,1.86-.51,1.85-.39,1.4-2.51-.08-1.9.16-1.61-.28L17,28.26l-4,.51-6-1-2.94-1,.13-1.07.67-1.23.38-1.38.1-1-.08-1-.12-1.35.17-1.3,0-1.34L5.47,15,5.3,13.11l.75-1.45.63-1.1.38-1.38L7.39,8l.5-.52.7-1.33.26-.93.56-.74,1-1.06L11.65,3Zm11.8,14.84Q25.45,15.9,25.4,15a59.29,59.29,0,0,1,.18-6.25A1.33,1.33,0,0,0,25,8.5a18.11,18.11,0,0,0-3.11-.22,4.93,4.93,0,0,0-2.78.46l-.68,2.46q-.19.69-.45,2.08t-.45,2.08a9.49,9.49,0,0,1-.86,2.17Q15.53,12,14.77,9.25a.39.39,0,0,0,.12-.18q.17-.61-.7-.76A34.23,34.23,0,0,0,8.51,8.2a1,1,0,0,0-.66.26q0,1.05.1,2,0,8.87.22,13.3l-.6.06A.5.5,0,0,1,8,24.2a8.78,8.78,0,0,1,.38,2.35,14.27,14.27,0,0,0,3.43.14L12,26a10.83,10.83,0,0,0,.24-2.9,12.93,12.93,0,0,1,.12-2.91q-.61-.26,0-2.54.06-.22.38-.2a24.23,24.23,0,0,1,1.67,5.83,13.53,13.53,0,0,1,.1,1.51,4.91,4.91,0,0,0,.22,1.5q.14.34.83.46l2.17.06.48-1.73q1.52.26,1.66-.25l-1.39-.24q.77-2.79,1.35-5.47,0-.13.09-.51a3.61,3.61,0,0,1,.09-.49,1,1,0,0,1,.92-.77A7.73,7.73,0,0,1,20.92,20q-.38,2.49-.37,2.6a1.25,1.25,0,0,0,.25.55.71.71,0,0,1,.1.59l-.08.29-.39.3q1,1.61,1,1.66-.07.24-.92.35a1.69,1.69,0,0,0,1,.54,25.11,25.11,0,0,0,2.73.15q1.33,0,1.34-.17Q25.53,20.78,25.53,17.75ZM12.33,15q-.25,0-.21-.19v0q.05-.19.3-.15t.21.26Q12.6,15.07,12.33,15Zm0,2.18q-.29-.05-.06-.89l.15-.55q.55.21.2,1.48Zm8.48-1.07a.19.19,0,0,1-.25.14q-.25,0-.2-.22l0-.06q0-.18.29-.13t.15.21Zm-.13-.48q-.16,0-.09-.27l0-.1q.09-.32.22-.3t.13.38Q20.91,15.69,20.71,15.65Zm-.32,1.49h0a.09.09,0,0,1,0-.05v0q0-.18.27-.14l.06,0a.21.21,0,0,1,0,.07Q20.64,17.19,20.39,17.14Zm.39-.66-.05,0s0,0,0-.09v0a.18.18,0,0,1,.08-.1l0,0q.11,0,.11.12v0A.19.19,0,0,1,20.79,16.49Z" fill="#ffffff"/></svg>
