<svg xmlns="http://www.w3.org/2000/svg" viewBox="0 0 200 122.71"><title>logo</title><path d="M121.28,0h3.66c5.6.65,8.73,3.78,11.44,7.32-1.18,13.55,2.61,22.81,3.2,36.61.6-7.9,4.83-14.51,3.2-22-.61-2.8-4.81-3.5-5-5.49s5.37-6.2,6.41-7.78c1.76-2.69,2-4.88,3.66-7.32A47.08,47.08,0,0,0,162,0h14.65c5.95,2.36,17.75,8,18.76,15.1.4,2.8.7,6,.92,9.15,1.49,21.85,2.93,50.18,3.66,71.85v3.2c-1.64,3.55-2.37,8-3.66,11.9-4.69,2.63-8.64,6-13.73,8.24-.66-5.13-2-9.64-2.75-14.65,3.14-2.44,6.62-3.72,9.15-7.32,4.11-5.85-.92-19.83-.92-19.83s-7.88-9.95-15.56-8.54c.5-4-3.21-8.45-2.29-12.81.37-1.77,3-3.74,4.58-5.95a38.5,38.5,0,0,0,5-35.24c-1-2.9-1.89-8.81-5.49-9.15-3-.29-9.31,11-10.83,14.65S163,36.7,166.13,46.22c-3.46,4.16-13,15.26-13,15.26s-6.6,8.89-7.17,15.41c-.79,9,1.53,19.76,4.58,22.88S168.67,108,178,105.72c.53,5.57,2.57,9.64,2.75,15.56-2,1.68-5.88,1.44-9.61,1.37-2.23-6.72-11.85-6.51-14.65-.46-8.89-3.92-11.46-14.17-17.39-21.05.66,9.6-1.67,19.17-9.61,19.68-4.51.29-10.49-3.17-11.9-8.24-3.61,2.34-16.1,4.35-19.22,0-5,2.82-14.55,1-20.14,3.2-1.37-.92-1.38-3.2-3.2-3.66-5.42,2-10.73-1-16-1.83-.22,2.37.49,5.68-.46,7.32-7.74,1.06-15-2-24.26-.92-1.44-1-1.94-2.94-2.75-4.58-.26,1.26-.48,2.57-2.29,2.29-8.76.06-16.92-.47-23.8-2.29C3.18,88.52,6.3,65.34,4.12,40.27c3.06-5.85,9.65-3.86,15.56-4.12,5.47-.24,11.12-4.71,16-1.83-.45-8.68.64-15.83,4.12-20.59,4.49-3.91,14.38-2.71,22-2.29a86.59,86.59,0,0,0,4.58,8.7c.49-3.17.86-6.46,2.75-8.24,8.28-1.09,21.58-2.57,25.17,3.66C94.59,13,96.5,12,98.86,11.44c4.44,2.57,5.29,8.75,8.7,12.36.53-6.79-1.28-15.92,1.37-20.59C112.57,1.66,117.09,1,121.28,0ZM92.91,26.54c-.47-3.82.91-8-.46-10.07C92.71,19.42,91.9,25.87,92.91,26.54Zm-14.19-3.2c-1.41,2.74,1.69,2.24,0,0Zm13.27,5Zm-.46.92c.53,1.81.53-1.81,0,0ZM68.65,41.65c.12,10.15,14.12,8.52,13.27,17.85a5.25,5.25,0,0,1-4.58,0c-1-1,.48-2.21,0-4.12-3.73.25-6-.79-9.15-.46v5.95c1.38,1.67,2.71,3.4,4.12,5,4.57,1,9.36,2.28,13.27.92,9.12-3.17,6.5-16.59-.46-20.14-4.39,1.88-11.17-8.93-2.29-7.32v4.12c3.54,1,6,.38,9.15,0C92.85,27.39,68.5,29.24,68.65,41.65ZM97,40.27a2.31,2.31,0,0,1,1.37,1.37c1.49.45,3.88-.59,5.95-.92-.15-1.68.39-4.05-.46-5C100.25,34.14,95.77,35.44,97,40.27Zm8.7-3.2c1.23.32.88-.95,1.37-1.37h-1.37Zm4.12,6.86c.51,4.85-.71,8.29,0,11.44C113,69.23,139,66.83,135.93,50.8c-3,.07-4.8,1.3-7.32,1.83-2.06,20.33-19-9.95-8.24-11.44,3.19-.44,3.24,2.73,6.41,3.2,2.6.39,3.58-1,6.86-1.83C131,32,111.91,35.13,109.84,43.94ZM48.51,41.65v-.92c-1.81-1.33-4.68.19-6.86,0C44.19,52,37.83,68.36,47.14,71.85c4.59,1.72,10.51-1.74,16.48-1.83-.74-10.25-.08-21.88-2.29-30.66H54c-.11,5.7.48,13.6.46,20.59,0,2.38,1.38,6.55-2.75,5.49C48.45,59.71,50.57,48.59,48.51,41.65Zm-42.11,27c1.7.74,4.5.38,6.86.46,0-4.09,1.82-9.95,2.29-14.65.32-3.24-1.34-8.82,3.66-8.24,2,8.34-3.26,15.58-1.83,23.34,1.4,1.35,4.67.83,7.32.92,2.39-7.64.39-17.79,4.12-23.34,3.7,2.09,1.5,7.7.92,11.44-.68,4.34-1.6,8.86-.92,12.36,1.46,2,6.27,1.72,7.78,0,0-8.85.87-19.23-1.37-27.92-10,.36-17.22-2-25.63-3.2C8.36,49.24,6.69,58.25,6.41,68.65ZM79.63,43ZM97,43.94c.39,8.56-1.17,16.37,0,23.8,1.64,1,4.95.24,7.32.46,1.22-8.7,1.91-16.78-.46-25.17C100.66,43.15,98.78,42.08,97,43.94ZM81,57.67Zm4.58,52.63c-1.9-.44-.09,1.37,0,0a4.19,4.19,0,0,0,2.29-1.83C87.81,104.89,82,87,90.62,87.41c1.76,5.87,1.22,14,1.37,21.51,2.09-.2,5,.46,6.41-.46-2.24-7.5,2-23.77-5.49-25.63-2.25-.56-5.29.83-7.32.46.93-2.29.34-5.82,0-8.24H81c.77,12.22-1.62,23.7-.46,34.78C81.08,110.83,84.27,108.06,85.58,110.3ZM59,84.67c-.28,2,1.95,3.56.92,6.86,2.29,3.29,11.74,4,8.24,10.07H65.45c-.71-.67-.4-2.34-.46-3.66a39,39,0,0,1-5-.46c.36,2.88-.62,5.55,0,7.32,7.41,5,17.78,2,16.48-7.32-.91-6.49-9-4.8-10.53-11.44.6,0,.42-.8.92-.92h2.75c.86.67.06,3,.92,3.66a13.26,13.26,0,0,0,5-.46V81.92C70.7,78.44,59.95,78,59,84.67Zm-4.58,2.75c-2.89-5.11-15.36-4.23-18.76,0,.56.05,1.08.14.92.92-1.54-1.35-1.89,1.12-.92,1.83a1.26,1.26,0,0,1,.92-1.37c1,4.36,6.81.56,7.78-.92,2.57.18,4.21,1.28,3.66,4.58-6.64-.39-11.34,1.17-13.73,5-2.14,9.68,8.71,10.91,13.73,6.86.61,2.14,3.54,1.95,6.41,1.83C53.86,101.95,57.26,92.36,54.46,87.41Zm56.75-1.83v.92a127.52,127.52,0,0,1,.46,13.73c0,2.77,1.42,6.19-1.83,5.95-3.1-4.53-1.38-13.87-2.75-20.14h-4.58c1.52,7.57-3.87,19.18,1.83,23.8,3.09,2.5,8.32.49,13.27-.46.91-8.08,1.26-16.85-.46-24.26C115.21,85.31,112.45,84.68,111.21,85.58ZM5.95,108c1.11.88,3.68.29,5.49.46.21-3,1.37-7.23,1.83-11,.31-2.57-1.22-7.24,2.75-6.86,2.62,5.44-2.82,12.54-.92,18.76,1.37.61,3.5.47,5.49.46,2.07-6.32-.14-14.88,3.66-18.76,3.28,5-1.4,12.19-.46,19.22,1,.92,4.08,1.42,5.49.46.93-7.43,3-13.56,1.37-21.51-6.37-2-14.71-1.66-22-3.66C7.59,92.87,6.72,100.39,5.95,108ZM128.6,87.41c-.73-1.71-3.45-1.44-5.95-1.37.16,9.38-.71,18.9-.46,27,2-.19,4.71.44,5.95-.46v-8.24a6.54,6.54,0,0,0,7.78.46c.12-5.66,2.15-14.18-.46-18.31C133.14,85.4,129.93,85.4,128.6,87.41ZM79.18,112.59a2.15,2.15,0,0,1,1.37.46c1.44-1.67-1-2.39-1.37-3.66C77.56,110.8,80.58,111.37,79.18,112.59Zm8.7-2.29c.67,1.52,1.14-1.79,0,0Zm-.92.92ZM33,113.5c7,.22,17.63,1.52,23.8-.46C47.24,113.17,41.31,111.83,33,113.5Z" fill-rule="evenodd"/><path d="M167.51,44.39c-2.68-8.58-.07-28.49,8.24-27.92,6.43.44,3.91,11.55,1.83,16A30.82,30.82,0,0,1,167.51,44.39Z" fill-rule="evenodd"/><path d="M48.51,41.65c-.64,2.44-1.65-1.49,0,0Z" fill-rule="evenodd"/><path d="M42.56,42.56c-.08-.75,3-.92,2.29.46A3,3,0,0,1,42.56,42.56Z" fill-rule="evenodd"/><path d="M43.94,44.39h.92c.21,1-.65.87-1.37.92C43.57,44.94,43.94,44.85,43.94,44.39Z" fill-rule="evenodd"/><path d="M170.71,69.11c-11.16,3.91-15.31,24.55-.46,28.83-.67-2.67-5.09-3.19-5.95-6.86-1.53-6.56,2.87-11.76,8.24-13.27,1.19,8.74,4.1,18.16,4.58,26.09-9.43,1.48-16.72-.7-21.05-5C143.21,86,167.51,58.12,167.51,58.12A108,108,0,0,0,170.71,69.11Z" fill-rule="evenodd"/><path d="M2.29,61.33c.74-.13.79.43,1.37.46-.09.37-.46.46-.46.92H2.29Z" fill-rule="evenodd"/><path d="M1.37,67.28c1.54.9,1.47,7-.46,7.32A33.92,33.92,0,0,1,1.37,67.28Z" fill-rule="evenodd"/><path d="M0,80.55V79.18c1.3.08-.38-2.82.92-2.75C.14,78.28,2.86,80.78,0,80.55Z" fill-rule="evenodd"/><path d="M174.37,77.35c14.68-1.24,16.44,21.27,5.49,25.63C177.36,95.1,176.24,85.85,174.37,77.35Z" fill-rule="evenodd"/><path d="M38.44,86.5h.92v.92h-.92Z" fill-rule="evenodd"/><path d="M130,89.7c1.79,2.18.94,9.42.46,12.36h-1.37C127.91,100.07,126.68,90.27,130,89.7Z" fill-rule="evenodd"/><path d="M48.05,96.11a10.41,10.41,0,0,1-1.37,5.49,11.47,11.47,0,0,1-4.58.46C38.62,98.67,42.75,94.83,48.05,96.11Z" fill-rule="evenodd"/></svg>